<svg version="1.1" id="Layer_1" xmlns="http://www.w3.org/2000/svg" xmlns:xlink="http://www.w3.org/1999/xlink" x="0px" y="0px" viewBox="0 0 254.6 49.1" style="enable-background:new 0 0 254.6 49.1;" xml:space="preserve">
 <g>
  <path d="M164,0c-0.3,0-0.6,0-0.9,0c-11,0.2-16.1,4.6-16.7,13.8c-0.4,5.4,3.3,11.3,11.1,13.9c7.7,2.6,13.3,4,12.5,8.8
		c-0.6,3.4-4.1,4.3-8.3,4.3c-0.8,0-1.5,0-2.4-0.1c-4.5-0.3-8.4-1.4-11.2-2.2c0,0-0.1,0-0.1,0c-0.1,0-0.2,0.1-0.3,0.2
		c-0.2,1.7-0.8,5.9-1,7.4c0,0.2,0.2,0.4,0.3,0.4c3.6,0.9,9.9,2.1,17.7,2.1c10.5,0,16-4.5,16.6-13.1c0.5-6.7-2.7-11.7-11.2-14.4
		c-9.2-2.9-13.1-5.5-12.5-9.8c0.5-3.1,3.1-3.8,6.2-3.8c1.1,0,2.3,0.1,3.5,0.2c4.4,0.4,8,1.4,10.6,2.2c0,0,0,0,0,0
		c0.1,0,0.2,0,0.2-0.2c0.3-1.5,1.1-5.7,1.3-7.1c0-0.2-0.2-0.3-0.2-0.3C174.1,0.9,169.5,0,164,0">
  </path>
  <path d="M116.6,0c-0.3,0-0.6,0-0.9,0c-10.9,0.2-16,4.6-16.7,13.8c-0.4,5.4,3.4,11.3,11.1,13.9c7.7,2.6,13.2,4,12.5,8.8
		c-0.6,3.4-4.1,4.3-8.3,4.3c-0.8,0-1.5,0-2.4-0.1c-4.5-0.3-8.3-1.4-11.2-2.2c0,0-0.1,0-0.1,0c-0.1,0-0.2,0.1-0.3,0.2
		c-0.2,1.7-0.8,5.9-1,7.4c0,0.2,0.1,0.4,0.2,0.4c3.6,0.9,10,2.1,17.7,2.1c10.5,0,16-4.5,16.6-13.1c0.5-6.7-2.7-11.7-11.2-14.4
		c-9.2-2.9-13.1-5.5-12.5-9.8c0.5-3.1,3.1-3.8,6.3-3.8c1.1,0,2.3,0.1,3.4,0.2c4.4,0.4,8,1.4,10.6,2.2c0,0,0,0,0.1,0
		c0,0,0.2,0,0.2-0.2c0.3-1.5,1.1-5.7,1.3-7.1c0-0.2-0.1-0.3-0.2-0.3C126.7,0.9,122,0,116.6,0">
  </path>
  <path d="M32.1,1.1H0.3C0.1,1.1,0,1.2,0,1.4v46.1c0,0.2,0.1,0.3,0.3,0.3h10.6c0.2,0,0.3-0.1,0.3-0.3V30.2c0-0.2,0.2-0.3,0.3-0.3
		h18.3c0.2,0,0.4-0.1,0.4-0.3v-7.1c0-0.2-0.2-0.3-0.4-0.3H11.4c-0.2,0-0.3-0.1-0.3-0.3V9.1c0-0.2,0.2-0.3,0.3-0.3h20.9
		c0.2,0,0.3-0.1,0.3-0.3l-0.3-7.1C32.4,1.2,32.2,1.1,32.1,1.1">
  </path>
  <path d="M65.5,0C51.2,0,43.4,9.4,43.4,24.6c0,15.1,7.8,24.5,22.1,24.5c14.3,0,22.1-9.4,22.1-24.5C87.6,9.2,80,0,65.5,0 M65.5,41.3
		c-9.7,0-11-8.1-11-16.8c0-8.7,1.3-16.8,11-16.8c9.7,0,11,8.1,11,16.8C76.5,33.3,75.2,41.3,65.5,41.3">
  </path>
  <path d="M207.1,1h-10.9c-0.2,0-0.3,0.1-0.3,0.3v46.1c0,0.2,0.2,0.3,0.3,0.3h10.9c0.2,0,0.3-0.1,0.3-0.3V1.3
		C207.4,1.2,207.3,1,207.1,1">
  </path>
  <path d="M235.6,1.1h-10.9c-0.2,0-0.3,0.1-0.3,0.3v46.1c0,0.2,0.1,0.3,0.3,0.3h29.2c0.2,0,0.3-0.1,0.3-0.3l0.4-7.3
		c0-0.2-0.1-0.3-0.3-0.3h-18c-0.2,0-0.3-0.1-0.3-0.3V1.4C235.9,1.2,235.7,1.1,235.6,1.1">
  </path>
 </g>
</svg>