<svg version="1.1" id="Layer_1" xmlns="http://www.w3.org/2000/svg" xmlns:xlink="http://www.w3.org/1999/xlink" x="0px" y="0px" viewBox="0 0 66.1 57.3" style="enable-background:new 0 0 66.1 57.3;" xml:space="preserve">
 <style type="text/css">
  .st0{fill:#FFFFFF;}
	.st1{fill:#000101;}
	.st2{fill:#EB0029;}
 </style>
 <g>
  <polygon class="st0" points="4.9,2.8 33.1,51.6 61.2,2.8 	">
  </polygon>
  <path class="st1" d="M29.9,19.2v-1.4h-0.4v1.5c0,0.3-0.1,0.4-0.4,0.4c-0.2,0-0.4-0.1-0.4-0.4v-1.4h-0.4v1.5c0,0.2,0,0.4,0.2,0.5
		c0.2,0.2,0.5,0.3,0.6,0.3C29.6,20,29.9,19.7,29.9,19.2 M30.3,19.9h0.4v-0.4h-0.4V19.9z M33,18.7l-0.5-0.1c-0.1,0-0.2-0.1-0.2-0.2
		c0-0.2,0.2-0.3,0.3-0.3c0.4,0,0.4,0.2,0.4,0.3h0.4c0-0.3-0.2-0.7-0.8-0.7c-0.7,0-0.8,0.4-0.8,0.7c0,0.5,0.3,0.6,0.6,0.6l0.2,0.1
		c0.2,0.1,0.4,0.1,0.4,0.3c0,0.2-0.2,0.3-0.4,0.3c-0.4,0-0.4-0.2-0.4-0.4h-0.4c0,0.3,0.1,0.7,0.9,0.7c0.2,0,0.8-0.1,0.8-0.7
		C33.5,18.9,33.2,18.8,33,18.7 M33.8,19.9h0.4v-0.4h-0.4V19.9z M35.8,19.5h0.7l0.1,0.5h0.5l-0.7-2.2H36l-0.7,2.2h0.4L35.8,19.5z
		 M36.2,18.2L36.2,18.2l0.3,0.9H36L36.2,18.2z M37.4,19.9h0.4v-0.4h-0.4V19.9z M21.7,23.9L20,24.4l1.3-1.3l-0.1-0.2l-1.8,0.5
		l1.4-1.2l-0.1-0.3l-1.7,1.6l0.1,0.2l1.8-0.5l-1.3,1.3l0.1,0.2l2.2-0.7L21.7,23.9z M22.3,24.8L20,25.3l0.1,0.2l0.7-0.1l0.4,0.7
		l-0.5,0.5l0.1,0.3l1.6-1.7L22.3,24.8z M21.4,25.9L21,25.4l1-0.2L21.4,25.9z M22.3,28.1c0.2-0.1,0.3-0.4,0.3-0.6
		c0-0.2-0.1-0.3-0.1-0.5c0-0.1-0.1-0.2-0.1-0.3c0-0.3,0.5-0.4,0.7,0c0.1,0.1,0.1,0.2,0.1,0.3c0,0.2-0.1,0.3-0.2,0.3l0.1,0.2
		c0.1,0,0.3-0.2,0.4-0.5c0-0.1-0.1-0.3-0.1-0.5c-0.2-0.4-0.7-0.4-1-0.2c-0.2,0.2-0.2,0.3-0.2,0.4c0,0.3,0,0.2,0.1,0.4
		c0,0.1,0.1,0.3,0.1,0.4c0,0.3-0.3,0.3-0.5,0.3c-0.1,0-0.2-0.1-0.2-0.2l-0.1-0.2c-0.1-0.3,0.1-0.5,0.2-0.6l-0.1-0.2
		c-0.1,0.1-0.3,0.2-0.4,0.4c-0.1,0.3,0,0.5,0.1,0.7C21.5,28.1,21.9,28.3,22.3,28.1 M24.5,28.8l-0.8,0.5l-0.5-0.9l0.8-0.5l-0.1-0.2
		l-1.9,1.1l0.1,0.2l0.9-0.5l0.5,0.9l-0.9,0.5l0.1,0.2l1.9-1.1L24.5,28.8z M23.4,30.7l0.7-0.4l0.6,1l0.2-0.1l-0.6-1l0.6-0.4l0.6,1
		l0.2-0.1l-0.7-1.2L23,30.6l0.7,1.3l0.2-0.1L23.4,30.7z M25.9,31.1l-1.9,1.1l0.5,0.8c0.1,0.1,0.2,0.2,0.5,0.2c0.3,0,0.6-0.1,1-0.3
		c0.5-0.3,0.6-0.8,0.4-1.2L25.9,31.1z M26,32.4c-0.1,0.2-0.3,0.3-0.5,0.4c-0.2,0.1-0.3,0.1-0.4,0.2c-0.1,0-0.3,0-0.4,0l-0.1-0.2
		l-0.3-0.5l1.5-0.9l0.2,0.4C26.1,32,26.2,32.2,26,32.4 M41.6,30.7l-1.5-0.9L39.9,30l1.3,0.8c0.1,0,0.3,0.2,0.3,0.3
		c0.1,0.1,0,0.3-0.1,0.4c-0.1,0.1-0.2,0.1-0.4,0l-0.2-0.1l-0.1,0.2l0.2,0.1c0.1,0.1,0.5,0.2,0.7-0.1c0,0,0.1-0.2,0.1-0.4
		C41.8,30.9,41.7,30.8,41.6,30.7 M42.1,30.2l-0.7-0.4l0.6-1l-0.2-0.1l-0.6,1l-0.6-0.4l0.6-1L41,28.2l-0.7,1.2l1.9,1.1l0.7-1.3
		l-0.2-0.1L42.1,30.2z M41.5,27.3l1.6,1.8l0.1-0.2l-0.5-0.5l0.4-0.7l0.7,0.2l0.1-0.3L41.7,27L41.5,27.3z M42.9,27.6l-0.3,0.5
		l-0.7-0.8L42.9,27.6z M42.9,25l1.6,0.9l-2.1,0l-0.2,0.3l1.9,1.1l0.1-0.2l-1.5-0.9l2.1,0l0.2-0.3L43,24.8L42.9,25z M45.4,23.9
		c-0.2-0.1-0.5-0.1-0.6,0c-0.1,0.1-0.3,0.2-0.4,0.4c-0.1,0.1-0.2,0.2-0.3,0.2c-0.2,0.1-0.6-0.2-0.4-0.6c0.1-0.1,0.1-0.2,0.2-0.2
		c0.2-0.1,0.3,0,0.4,0l0.1-0.2c-0.1-0.1-0.3-0.2-0.6,0c-0.1,0.1-0.3,0.2-0.4,0.4c-0.3,0.4-0.1,0.8,0.3,1c0.3,0.1,0.4,0,0.5,0
		c0.2-0.2,0.1-0.1,0.3-0.3c0.1-0.1,0.2-0.2,0.3-0.3c0.3-0.1,0.5,0.1,0.5,0.3c0,0.1,0,0.2-0.1,0.3c0,0.1-0.1,0.2-0.1,0.2
		c-0.2,0.3-0.5,0.1-0.6,0.1l-0.1,0.2c0.2,0.1,0.3,0.2,0.5,0.1c0.3,0,0.4-0.2,0.6-0.4C45.8,24.6,45.8,24.1,45.4,23.9 M28.7,40.6
		c0.2,0.2,0.2,0.2,0.1,0.5l0.1,0.1l0.2-0.3l1,0.6l0.1-0.2l-1.4-0.8L28.7,40.6z M30.3,40.6c-0.1-0.1-0.2-0.4-0.2-0.4l0-0.3
		c0-0.1-0.1-0.4-0.3-0.5c-0.2-0.1-0.5-0.1-0.6,0.1c-0.2,0.4,0,0.6,0.2,0.7l0.1-0.2c-0.2-0.1-0.3-0.3-0.2-0.5c0-0.1,0.2-0.2,0.4-0.1
		c0.2,0.1,0.2,0.2,0.2,0.3l0,0.3c0,0.4,0.1,0.5,0.4,0.7l0.5-0.9l-0.2-0.1L30.3,40.6z M30.8,38.6c-0.2-0.1-0.4-0.2-0.6-0.2
		c-0.2,0-0.3,0.1-0.4,0.2c-0.1,0.1-0.1,0.3,0,0.4c0.1,0.1,0.3,0.3,0.5,0.4c0.2,0.1,0.4,0.2,0.6,0.2c0.2,0,0.3-0.1,0.4-0.2
		c0.1-0.1,0.1-0.3,0-0.4C31.2,38.9,31,38.7,30.8,38.6 M31.1,39.4c0,0.1-0.1,0.1-0.3,0.1c-0.1,0-0.3-0.1-0.5-0.2
		c-0.2-0.1-0.3-0.2-0.4-0.3c-0.1-0.1-0.1-0.2,0-0.3c0-0.1,0.1-0.1,0.3-0.1c0.1,0,0.3,0.1,0.5,0.2c0.2,0.1,0.3,0.2,0.4,0.3
		C31.2,39.2,31.2,39.3,31.1,39.4 M30.4,37.6c0.2,0.2,0.2,0.2,0.1,0.5l0.1,0.1l0.2-0.3l1,0.6l0.1-0.2l-1.4-0.8L30.4,37.6z M35.7,37.6
		c-0.3,0.1-0.3,0.1-0.5-0.2l-0.1,0.1l0.2,0.3l-1,0.6l0.1,0.2l1.4-0.8L35.7,37.6z M35.3,39.2l0.2,0.1c0.1,0.1,0.4,0.1,0.6,0
		c0.2-0.1,0.3-0.4,0.2-0.6c-0.2-0.4-0.5-0.3-0.8-0.2l0.1,0.2c0.2-0.1,0.4-0.1,0.5,0.1c0,0,0.1,0.3-0.1,0.4c-0.2,0.1-0.3,0-0.4,0
		L35.4,39c-0.3-0.2-0.5-0.1-0.8,0l0.5,0.9l0.2-0.1l-0.4-0.7C35,39,35.2,39.1,35.3,39.2 M36.8,40.1c0.1-0.2,0.1-0.3,0-0.4
		s-0.2-0.2-0.4-0.2c-0.2,0-0.4,0.1-0.6,0.2c-0.2,0.1-0.4,0.3-0.5,0.4c-0.1,0.2-0.1,0.3,0,0.4s0.2,0.2,0.4,0.2c0.2,0,0.4-0.1,0.6-0.2
		C36.5,40.4,36.7,40.2,36.8,40.1 M35.8,40.5c-0.1,0-0.2,0-0.3-0.1c0-0.1,0-0.2,0-0.3c0-0.1,0.2-0.2,0.4-0.3c0.2-0.1,0.4-0.2,0.5-0.2
		c0.1,0,0.2,0,0.3,0.1c0,0.1,0.1,0.2,0,0.3c0,0.1-0.2,0.2-0.4,0.3C36.1,40.4,35.9,40.5,35.8,40.5 M36.7,40.5l0.1,0.2
		c0.2-0.1,0.3-0.1,0.4,0.1c0.1,0.1,0.1,0.2-0.1,0.4c-0.2,0.1-0.3,0-0.4-0.2L36.6,41c0.1,0.2,0.2,0.4,0,0.5c-0.2,0.1-0.3,0.1-0.5-0.1
		c-0.1-0.2,0-0.3,0.2-0.4l-0.1-0.2c-0.2,0.1-0.4,0.3-0.2,0.7c0.1,0.2,0.4,0.3,0.7,0.2c0.1-0.1,0.3-0.2,0.2-0.4c0.1,0,0.2,0.1,0.4,0
		c0.3-0.2,0.3-0.4,0.2-0.6C37.3,40.4,37,40.4,36.7,40.5 M55.9,3.8c-1.1,0-2,1-2,2.2c0,1.2,0.9,2.2,2,2.2c1.1,0,2-1,2-2.2
		C57.9,4.8,57,3.8,55.9,3.8 M55.9,7.8c-0.9,0-1.6-0.6-1.6-1.8c0-1,0.7-1.8,1.6-1.8c0.9,0,1.6,0.8,1.6,1.8C57.6,7,56.8,7.8,55.9,7.8
		 M56.4,5.9L56.4,5.9c0.3-0.1,0.5-0.3,0.5-0.6c0-0.5-0.4-0.6-0.9-0.6h-0.9v2.6h0.4V6.1h0.5c0.1,0,0.3,0,0.4,0.1
		c0.1,0.1,0.1,0.3,0.1,0.6c0,0.2,0.1,0.3,0.1,0.5H57c-0.1-0.2-0.1-0.5-0.2-0.8C56.8,6.2,56.7,6,56.4,5.9 M56,5.8h-0.6V5H56
		c0.4,0,0.5,0.2,0.5,0.4C56.5,5.6,56.4,5.7,56,5.8 M20.3,14.6v-3c0-1,0.3-1.1,0.9-1.1l0,0l0,0v-0.3h-3.5v0.3l0,0
		c0.9,0.1,1.1,0.1,1.1,1.3v2.4c0,0.5-0.9,0.8-1.8,0.8c-2.1,0-3.5-1.7-3.5-4.4c0-4.5,2.7-4.7,3.3-4.7c1.9,0,2.6,1.4,2.9,2.5l0,0h0.4
		L20,5.3h-0.4l0,0c-0.1,0.4-0.6,0.5-0.6,0.5c-0.2,0-0.3-0.1-0.6-0.1c-0.4-0.1-1-0.3-1.9-0.3c-2.9,0-4.7,2.6-4.7,5
		c0,2,0.4,2.9,1.1,3.7c0.9,1,2.3,1.6,3.8,1.6C18.4,15.7,20.3,14.9,20.3,14.6 M40.3,15.7L40.3,15.7c0-0.3,0.1-0.5,0.4-0.5
		c0.1,0,0.3,0.1,0.6,0.2c0.4,0.2,0.9,0.3,1.5,0.3c1.9,0,2.9-1.4,2.9-2.7c0-1.7-1.4-2.5-2.5-3.3c-1-0.7-2-1.3-2-2.3
		c0-0.9,0.7-1.4,1.3-1.4c1.4,0,2.3,1.3,2.5,2.5l0,0h0.4l-0.3-3.2h-0.3l0,0c0,0.2-0.1,0.5-0.4,0.5c-0.1,0-0.3-0.1-0.5-0.2
		c-0.4-0.1-0.8-0.3-1.3-0.3c-1.2,0-2.5,0.8-2.5,2.6c0,1.5,0.9,2.2,2.1,3c2,1.3,2.2,1.8,2.2,2.6c0,0.8-0.5,1.6-1.6,1.6
		c-1.8,0-2.5-1.9-2.7-2.6l0,0h-0.4l0.4,3.2H40.3z M22.5,7.1v4.7c0,0.5,0,1.4,0.4,2.3c0.5,1.1,1.5,1.6,3,1.6c3.6,0,3.6-2.8,3.6-4V7.7
		c0-1.6,0.2-1.8,1.2-1.9l0,0V5.5h-3.2v0.4l0,0c1,0.1,1.2,0.3,1.2,1.9v4c0,1.3-0.1,1.7-0.3,2c-0.4,0.7-1.2,1.2-2.2,1.2
		c-2.3,0-2.3-2-2.3-3V7.1c0-1.1,0.2-1.2,1.2-1.3l0,0V5.5h-3.9v0.3l0,0C22.3,5.9,22.5,6.1,22.5,7.1 M50.5,9.7c-1-0.7-2-1.3-2-2.3
		c0-0.9,0.7-1.4,1.3-1.4c1.4,0,2.3,1.3,2.5,2.5l0,0h0.4l-0.3-3.2h-0.3l0,0c0,0.2-0.1,0.5-0.4,0.5c-0.1,0-0.3-0.1-0.6-0.2
		c-0.4-0.1-0.8-0.3-1.3-0.3c-1.2,0-2.5,0.8-2.5,2.6c0,1.5,0.9,2.2,2.1,3c2,1.3,2.2,1.8,2.2,2.6c0,0.8-0.5,1.6-1.6,1.6
		c-1.8,0-2.5-1.9-2.7-2.6l0,0h-0.4l0.4,3.2h0.4v0c0-0.2,0.1-0.5,0.4-0.5c0.2,0,0.3,0.1,0.6,0.2c0.4,0.2,0.9,0.3,1.5,0.3
		c1.9,0,2.9-1.4,2.9-2.7C53,11.3,51.7,10.4,50.5,9.7 M38.4,12.9c-0.6,1.5-1.3,1.9-2.9,1.9c-2,0-2,0-2-0.6v-3.7l2.1,0
		c1.1,0,1.3,0.2,1.5,1.4l0,0h0.4V8.4H37l0,0c-0.1,1-0.3,1.4-1.5,1.4h-2.1V6.6c0-0.5,0.1-0.5,0.4-0.5h1.8c1.5,0,1.8,0.2,2,1.5l0,0
		h0.4l0-2.2h-7.3v0.4l0,0c0.9,0.1,1.1,0.2,1.1,1.3v6.6c0,1.1-0.3,1.3-1.1,1.3l0,0v0.4h7.4l0.6-2.6L38.4,12.9L38.4,12.9z">
  </path>
  <path class="st2" d="M0,0l33.1,57.3L66.1,0H0z M4.9,2.8h56.3L33.1,51.6L4.9,2.8z M37.5,24.2L37.5,24.2c-1.4-1.3-3.2-1.5-5.1-1.5
		l-0.4,0c-1.1,0.1-2.3,0.3-3.2,0.9c-1.7,1.1-1.8,2.9-2,4.6c0,0.4-0.1,0.8-0.1,1.2l0,0.1l3.3,0l0-0.6c0-0.5,0-1.1,0.2-1.5
		c0.5-0.7,1.2-1,2.4-1.1c0.5,0,1.6,0.2,1.9,1.1c0.2,0.9-0.5,1.5-1.2,2.1c-0.2,0.2-0.4,0.4-0.6,0.5c-0.8,0.8-1.4,1.8-1.6,2.9l0,3.2
		l3.8,0l0-0.1c0-0.3,0-0.6,0-1c-0.1-0.9-0.1-2,0.4-2.8c0.4-0.6,0.9-1,1.4-1.5c0.6-0.6,1.3-1.2,1.7-2C39.2,27.5,38.8,25.6,37.5,24.2
		 M29.7,43.8h6.8l-3.4-5.9L29.7,43.8z">
  </path>
 </g>
</svg>