<svg version="1.1" id="svg3161" xmlns:x="ns_extend;" xmlns:i="ns_ai;" xmlns:graph="ns_graphs;" xmlns:svg="http://www.w3.org/2000/svg" xmlns="http://www.w3.org/2000/svg" xmlns:xlink="http://www.w3.org/1999/xlink" x="0px" y="0px" viewBox="0 0 567.3 53.4" style="enable-background:new 0 0 567.3 53.4;" xml:space="preserve">
 <metadata>
  <sfw xmlns="ns_sfw;">
   <slices>
   </slices>
   <sliceSourceBounds bottomLeftOrigin="true" height="53.4" width="567.3" x="5" y="5">
   </sliceSourceBounds>
  </sfw>
 </metadata>
 <g id="layer1" transform="translate(-79.31097,-665.20007)">
  <path id="path136" d="M202.8,701.5c-2.7,4.7-6.4,7.8-13.3,7.8c-9.6,0-17-7.8-17-17.4c0-9.6,7.4-17.4,17-17.4c7,0,11.2,3.5,13.8,8.8
		h10.2c-2.7-10.5-12.4-18.1-24.2-18.1c-14.8,0-26.1,11.9-26.1,26.7c0,14.8,11.3,26.7,26.1,26.7c11.4,0,20.8-6.7,23.9-17.1
		L202.8,701.5L202.8,701.5z M625,718.6c-8.8,0-17.9-3.6-22.8-10.7l7.9-5.7c3.7,5,9.1,7.5,14.9,7.5c5.1,0,11.6-1.5,11.6-6.5
		c0-5.6-9.5-6.5-13.7-7.5c-8.4-2-17.8-3.8-17.8-14.8c0-10.7,10.3-15.8,19.7-15.8c8.7,0,16,3.1,21.3,10.1l-7.6,5.7
		c-3.4-4.4-7.5-7-13.7-7c-5.5,0-9.7,2-9.7,5.5c0,5.7,8.2,5.8,15.3,7.5c7.5,1.8,16.2,4.1,16.2,14.7
		C646.6,714.3,635.2,718.6,625,718.6 M586.8,683.5c0,4.3-3.5,7.8-7.8,7.8h-15.2v-15.6H579C583.3,675.7,586.8,679.2,586.8,683.5
		 M597.9,717.3L587,698.7c5.4-2.8,9.1-8.6,9.1-15.1c0-9.5-7.6-17.1-17.1-17.1h-24.5v50.9h9.3v-16.7h13.5l9.6,16.7H597.9L597.9,717.3
		z M534.5,691.9c0,9.6-7.8,17.4-17.4,17.4c-9.6,0-17.4-7.8-17.4-17.4c0-9.6,7.8-17.4,17.4-17.4C526.7,674.5,534.5,682.3,534.5,691.9
		 M543.8,691.9c0-14.8-11.9-26.7-26.7-26.7c-14.8,0-26.7,11.9-26.7,26.7c0,14.8,11.9,26.7,26.7,26.7
		C531.8,718.6,543.8,706.7,543.8,691.9 M478.5,717.4l-16.7-23.4l-6.5,6.7v16.7h-9.3v-50.9h9.3v21.2l20.7-21.2h12.4l-19.9,20.7
		l21.6,30.3L478.5,717.4L478.5,717.4z M378.7,717.4v-50.9h9.3V708h21.8v9.3L378.7,717.4L378.7,717.4z M330,717.4v-50.9h35.3v9.3h-26
		v11.5h26v9.3h-26V708h26v9.3L330,717.4L330,717.4z M304.4,696.6h-13.8l6.9-17.5L304.4,696.6z M322.7,717.4l-20.4-50.9h-9.6
		l-20.4,50.9h10l4.7-11.6H308l4.7,11.6H322.7z M255.6,717.4v-20.8H232v20.8h-9.3v-50.9h9.3v20.8h23.6v-20.8h9.3v50.9H255.6z
		 M145.4,666.4h9.3v50.9h-9.3V666.4z M124.1,717.4v-36.7l-12.7,36.7h-10.2l-12.6-36.7v36.7h-9.3v-50.9h13.8l13.2,36.7l13.2-36.7
		h13.8v50.9H124.1z">
  </path>
 </g>
</svg>