<svg xmlns="http://www.w3.org/2000/svg" id="Layer_1" version="1.1" viewBox="0 0 1478 533">
  <!-- Generator: Adobe Illustrator 29.8.2, SVG Export Plug-In . SVG Version: 2.1.1 Build 3)  -->
  <defs>
    <style>
      .st0 {
        fill: #ef411d;
      }
    </style>
  </defs>
  <path class="st0" d="M176.4,266.5c0,38.6-12.5,60.8-34.3,60.8s-34.6-22.1-34.6-60.8,12.5-60.8,34.3-60.8,34.6,22.1,34.6,60.8M238.1,266.5c0-67-37.9-110.3-95.6-110.3s-96.5,43.9-96.5,110.3,37.9,110.3,95.6,110.3,96.5-43.9,96.5-110.3M265.2,374.3h126.1v-49.8h-68v-165.8h-58.1v215.6ZM533,266.7c0,39.2-16.8,58.9-50.9,58.9h-7.2v-118.3h6.1c34.9,0,52,19.9,52,59.4M594.7,266.1c0-67.7-40.7-107.5-110.3-107.5h-67.4v215.6h63c70.8,0,114.7-41.4,114.7-108.1M791.9,374.3h64.7v-215.6h-51.7v126.6l-51.7-126.6h-69.7v215.6h51.7v-139.1l56.8,139.1h0ZM991,294.9h-39l19.7-101.5,19.3,101.5ZM1066.4,374.3l-46.7-215.6h-93.1l-46.7,215.6h56.6l6.1-32h57.8l6.1,32h59.8ZM1196,374.3l47-215.6h-56.2l-31.4,163.7-31.6-163.7h-58.9l47.3,215.6h83.8ZM1371.9,312.7l60.6-154h-56.4l-31,92-32.4-92h-60.6l61.7,154.6v61.1h58.1v-61.7Z"/>
</svg>